<?xml version="1.0" encoding="iso-8859-1"?>
<!-- Uploaded to: SVG Repo, www.svgrepo.com, Generator: SVG Repo Mixer Tools -->
<svg fill="#000000" height="300px" width="300px" version="1.1" id="Layer_1" xmlns="http://www.w3.org/2000/svg" xmlns:xlink="http://www.w3.org/1999/xlink" 
	 viewBox="0 0 512.001 512.001" xml:space="preserve">
<g>
	<g>
		<path d="M509.931,201.43c-4.195-10.128-13.987-16.673-24.947-16.673h-34.29c-12.305-21.021-55.635-73.699-181.818-77.075V69.725
			h23.614c7.111,0,12.876-5.765,12.876-12.876s-5.765-12.876-12.876-12.876h-72.968c-7.111,0-12.876,5.765-12.876,12.876
			s5.765,12.876,12.876,12.876h23.601v37.947c-62.35,1.643-111.902,15.372-147.42,40.876
			c-19.003,13.646-29.287,27.596-34.355,36.211H27.017c-10.959,0-20.751,6.545-24.947,16.673
			c-4.195,10.127-1.898,21.677,5.851,29.425l48.415,48.402V404.24c0,35.172,28.615,63.787,63.787,63.787H391.88
			c35.172,0,63.787-28.615,63.787-63.787V279.258l48.416-48.403C511.829,223.106,514.126,211.557,509.931,201.43z M56.335,242.843
			l-30.206-30.198c-0.234-0.233-0.588-0.587-0.268-1.36c0.322-0.776,0.823-0.776,1.155-0.776h29.318V242.843z M110.725,169.466
			c23.005-16.52,66.885-36.211,145.276-36.211c76.703,0,120.228,18.908,143.234,34.77c8.389,5.784,14.715,11.59,19.416,16.734
			H93.356C97.666,180.04,103.338,174.769,110.725,169.466z M429.915,273.922v130.317h-0.001c0,20.974-17.062,38.035-38.035,38.035
			H120.122c-20.974,0-38.035-17.062-38.035-38.035V273.922v-63.414h347.829V273.922z M485.873,212.645l-30.207,30.199V210.51h29.318
			c0.332,0,0.833,0,1.155,0.776C486.46,212.058,486.107,212.412,485.873,212.645z"/>
	</g>
</g>
<g>
	<g>
		<path d="M270.486,234.974h-68.139c-7.111,0-12.876,5.765-12.876,12.876s5.765,12.876,12.876,12.876h68.139
			c7.111,0,12.876-5.765,12.876-12.876S277.598,234.974,270.486,234.974z"/>
	</g>
</g>
<g>
	<g>
		<path d="M309.655,234.974h-3.408c-7.111,0-12.876,5.765-12.876,12.876s5.765,12.876,12.876,12.876h3.408
			c7.111,0,12.876-5.765,12.876-12.876S316.765,234.974,309.655,234.974z"/>
	</g>
</g>
</svg>