<?xml version="1.0" encoding="iso-8859-1"?>
<!-- Uploaded to: SVG Repo, www.svgrepo.com, Generator: SVG Repo Mixer Tools -->
<svg fill="#000000" height="300px" width="300px" version="1.1" id="Layer_1" xmlns="http://www.w3.org/2000/svg" xmlns:xlink="http://www.w3.org/1999/xlink" 
	 viewBox="0 0 512 512" xml:space="preserve">
<g>
	<g>
		<path d="M153.6,0c-42.351,0-76.8,34.449-76.8,76.8c0,42.351,34.449,76.8,76.8,76.8c42.351,0,76.8-34.449,76.8-76.8
			C230.4,34.449,195.951,0,153.6,0z M153.6,128c-28.279,0-51.2-22.921-51.2-51.2s22.921-51.2,51.2-51.2
			c28.279,0,51.2,22.921,51.2,51.2S181.879,128,153.6,128z"/>
	</g>
</g>
<g>
	<g>
		<path d="M153.6,384h-64c-7.049,0-12.8-5.751-12.8-12.8V256c0-7.074-5.726-12.8-12.8-12.8s-12.8,5.726-12.8,12.8v115.2
			c0,21.171,17.229,38.4,38.4,38.4h12.8v76.8H89.6c-7.074,0-12.8,5.726-12.8,12.8c0,7.074,5.726,12.8,12.8,12.8h51.2
			c7.074,0,12.8-5.726,12.8-12.8c0-7.074-5.726-12.8-12.8-12.8H128v-76.8h25.6c10.3,0,12.646,7.023,12.8,12.928
			c0.077,6.997,5.777,12.672,12.8,12.672c7.074,0,12.8-5.726,12.8-12.8C192,406.972,181.777,384,153.6,384z"/>
	</g>
</g>
<g>
	<g>
		<path d="M448,256H230.4c-7.074,0-12.8,5.726-12.8,12.8c0,7.074,5.726,12.8,12.8,12.8h12.8v19.951l-38.4-12.8V230.4
			c0-28.228-22.972-51.2-51.2-51.2s-51.2,22.972-51.2,51.2v102.4c0,11.75,7.996,21.99,19.388,24.832l86.682,21.675l22.426,112.119
			C233.293,503.39,243.797,512,256,512h179.2V281.6H448c7.074,0,12.8-5.726,12.8-12.8C460.8,261.726,455.074,256,448,256z
			 M243.2,422.4l-12.8-64L128,332.8V230.4c0-14.14,11.46-25.6,25.6-25.6c14.14,0,25.6,11.46,25.6,25.6v76.8l64,21.333V422.4z
			 M409.6,486.4H268.8V281.6h140.8V486.4z"/>
	</g>
</g>
<g>
	<g>
		<path d="M399.898,102.775c-6.972-1.672-13.824,2.449-15.522,9.327L361.199,204.8H268.8c-7.074,0-12.8,5.726-12.8,12.8
			c0,7.074,5.726,12.8,12.8,12.8h102.4c5.871,0,11-4.002,12.425-9.702l25.6-102.4C410.923,111.445,406.775,104.499,399.898,102.775z
			"/>
	</g>
</g>
</svg>